<?xml version="1.0"?>
<svg xmlns:rdf="http://www.w3.org/1999/02/22-rdf-syntax-ns#" xmlns="http://www.w3.org/2000/svg" xmlns:cc="http://web.resource.org/cc/" xmlns:xlink="http://www.w3.org/1999/xlink" xmlns:dc="http://purl.org/dc/elements/1.1/" xmlns:svg="http://www.w3.org/2000/svg" id="svg2" viewBox="0 0 388.32 388.33" version="1.0">
  <defs id="defs4">
    <radialGradient id="radialGradient4280" gradientUnits="userSpaceOnUse" cy="466.64" cx="377.15" gradientTransform="matrix(1.253 .51901 -.51901 1.253 137.78 -364.81)" r="143.16">
      <stop id="stop4239" stop-color="#a00" offset="0"/>
      <stop id="stop4245" stop-color="#f96f6f" offset=".60714"/>
      <stop id="stop4241" stop-color="#a00" offset="1"/>
    </radialGradient>
    <radialGradient id="radialGradient4283" gradientUnits="userSpaceOnUse" cy="466.3" cx="377.14" gradientTransform="matrix(1.3562 0 0 1.3561 -143.35 -217.17)" r="133.06">
      <stop id="stop3715" stop-color="#c9c9c9" offset="0"/>
      <stop id="stop4120" stop-color="#fff" offset=".8"/>
      <stop id="stop3711" stop-color="#c9c9c9" offset="1"/>
    </radialGradient>
    <radialGradient id="radialGradient4299" gradientUnits="userSpaceOnUse" cy="414.61" cx="373.5" gradientTransform="matrix(4.5672 0 0 4.5906 -1332.3 -1489)" r="46.669">
      <stop id="stop3802" stop-color="#fff" stop-opacity="0" offset="0"/>
      <stop id="stop3804" stop-color="#f3caca" stop-opacity=".18367" offset="1"/>
    </radialGradient>
  </defs>
  <g id="layer2" transform="translate(-173.96 -221.48)">
    <g id="g4304">
      <path id="path4249" style="color:#000000" d="m226.97 274.49c-38.79 38.79-27.02 90.28-27.02 141.15 0 50.86-11.77 102.35 27.02 141.14s90.28 27.02 141.15 27.03c50.88 0.01 102.37 11.78 141.16-27.01s27.02-90.28 27.02-141.16c0-50.89 11.77-102.38-27.02-141.17s-90.28-27.02-141.16-27.01c-50.87 0.01-102.36-11.76-141.15 27.03zm3.17 3.17c37.92-37.92 88.27-25.73 138-25.74 49.73-0.02 100.08-12.24 138 25.69 37.92 37.92 25.72 88.28 25.72 138.03 0 49.74 12.2 100.1-25.72 138.03-37.92 37.92-88.28 25.7-138.01 25.7-49.74-0.01-100.1 12.19-138.02-25.73s-25.71-88.27-25.7-137.99c0-49.73-12.2-100.07 25.73-137.99z" stroke="#9b8942" stroke-linecap="round" stroke-dasharray="8,4" stroke-width="4" fill="#9b8942"/>
      <path id="path6932" d="m368.14 234.73c-99.61 0-180.46 80.81-180.46 180.42 0 99.62 80.85 180.47 180.46 180.47s180.46-80.85 180.46-180.47c0-99.61-80.85-180.42-180.46-180.42zm0 93.79c47.82 0 86.63 38.81 86.63 86.63s-38.81 86.67-86.63 86.67-86.63-38.85-86.63-86.67 38.81-86.63 86.63-86.63z" style="color:#000000" fill="url(#radialGradient4283)"/>
      <path id="path3421" d="m405.7 487.29c-2.51-0.99-5.31-0.97-7.81 0.06-2.24 0.92-4.51 1.72-6.8 2.42-2.37 0.73-4.8 1.34-7.27 1.84-2.45 0.51-4.89 0.87-7.39 1.14-2.5 0.26-5.06 0.42-7.59 0.44s-5.02-0.07-7.56-0.31c-2.58-0.23-5.16-0.61-7.65-1.09-2.52-0.49-5.02-1.1-7.57-1.87-2.57-0.77-5.14-1.65-7.57-2.66-5.34-2.21-11.45 0.32-13.66 5.66l-36.64 88.44c-2.2 5.33 0.33 11.45 5.66 13.66 4.11 1.7 8.03 2.92 11.58 4.13 1.52 0.52 3.57 1.39 6.21 2.2 3.87 1.18 7.45 1.98 10.64 2.76 2.18 0.53 4.82 1.3 7.97 1.93 3.76 0.75 7.15 1.13 10.15 1.56 2.51 0.37 5.44 0.91 8.78 1.23 3.28 0.33 6.21 0.39 8.78 0.53 3.15 0.17 6.65 0.44 10.48 0.43 2.95 0 5.36-0.27 7.26-0.34 0.01 0 0.02 0.01 0.04 0.02 3.63-0.15 7.57-0.24 11.82-0.67 2.99-0.3 5.39-0.78 7.27-1.04 3.35-0.47 7.09-0.91 11.13-1.71 3.4-0.68 6.36-1.53 8.96-2.18 2.86-0.71 6.15-1.4 9.7-2.49 2.46-0.75 4.32-1.56 5.7-2.02 3.81-1.29 7.9-2.61 12.13-4.36 2.57-1.06 4.62-3.09 5.69-5.66 1.06-2.56 1.04-5.45-0.03-8.02l-36.58-88.32c-1.09-2.61-3.19-4.68-5.83-5.71zm36.75-251.03c-49.45-20.49-102.68-18.93-148.57 0.07-5.32 2.21-7.85 8.31-5.65 13.64l36.33 87.79c1.07 2.56 3.1 4.59 5.67 5.65 2.57 1.05 5.47 1.05 8.03-0.03 0.16-0.06 0.11-0.07 0.24-0.13 0.6-0.25 0.72-0.3 0.86-0.35 0.05-0.03 0.31-0.1 0.32-0.11 1.9-0.74 3.87-1.42 5.89-2.03 2.43-0.75 4.82-1.37 7.23-1.87 2.4-0.49 4.9-0.88 7.45-1.15 2.5-0.26 5-0.4 7.53-0.42s5.06 0.09 7.6 0.32c2.61 0.24 5.16 0.56 7.63 1.04 2.5 0.48 5.05 1.11 7.61 1.88 2.58 0.77 5.08 1.68 7.52 2.69 5.33 2.21 11.44-0.33 13.65-5.66l36.32-87.68c2.21-5.33-0.32-11.44-5.66-13.65zm99.26 99.42c-2.54-1.02-5.37-1.01-7.89 0.03l-87.75 36.35c-5.32 2.21-7.85 8.31-5.65 13.64 0.92 2.24 1.72 4.52 2.42 6.8 0.74 2.44 1.37 4.82 1.86 7.23 0.49 2.4 0.85 4.89 1.11 7.44 0.27 2.49 0.44 5.01 0.46 7.54 0.02 2.54-0.09 5.06-0.32 7.6-0.23 2.61-0.56 5.16-1.04 7.63-0.48 2.5-1.15 5.04-1.92 7.6-0.68 2.29-1.5 4.59-2.43 6.91-0.11 0.22-0.19 0.34-0.45 0.95-1.07 2.56-1.07 5.43-0.01 8s3.09 4.63 5.66 5.69l88.12 36.51c5.33 2.2 11.44-0.33 13.65-5.66 2.45-5.91 4.52-11.85 6.33-17.79 1.16-3.79 1.92-7.25 2.67-10.31 0.59-2.37 1.36-5.16 2-8.36 0.72-3.59 1.11-6.85 1.54-9.73 0.39-2.65 0.91-5.66 1.25-9.06 0.35-3.56 0.43-6.85 0.57-9.8 0.01-0.01 0.01-0.03 0.02-0.04 0.12-2.69 0.38-5.75 0.38-9.22 0-3.28-0.21-6.16-0.33-8.67-0.14-3.19-0.27-6.72-0.64-10.5-0.3-2.99-0.76-5.59-1.07-7.79-0.48-3.38-0.94-7.09-1.74-11.05-0.59-2.97-1.3-5.37-1.77-7.33-0.82-3.39-1.65-7.13-2.86-11.09-0.75-2.46-1.56-4.31-2.02-5.69-1.29-3.81-2.61-7.9-4.36-12.13-1.08-2.6-3.17-4.66-5.79-5.7zm-339.28 0c-5.33-2.21-11.45 0.32-13.66 5.65-20.48 49.46-18.99 102.7 0.02 148.6 1.06 2.57 3.09 4.63 5.66 5.69 2.56 1.06 5.45 1.05 8.02-0.02l88.32-36.58c2.56-1.07 4.59-3.11 5.65-5.68 1.05-2.57 1.05-5.46-0.03-8.02-0.02-0.05-0.05-0.12-0.09-0.23-0.94-2.26-1.75-4.63-2.5-7.07-0.74-2.43-1.36-4.82-1.86-7.23-0.5-2.48-0.89-4.99-1.15-7.45-0.26-2.41-0.38-4.95-0.4-7.57s0.04-5.12 0.26-7.57c0.23-2.52 0.6-5.09 1.1-7.66 0.48-2.49 1.13-4.99 1.9-7.55 0.71-2.36 1.57-4.79 2.55-7.19 2.18-5.33-0.35-11.42-5.67-13.62l-88.12-36.5z" style="color:#000000" fill="url(#radialGradient4280)"/>
      <path id="path6920" d="m368.14 609.77v0.05c4.15 0 8.2-0.38 12.29-0.64-4.1 0.26-8.19 0.59-12.29 0.59z" style="color:#000000" fill="#ccc"/>
      <path id="path6899" d="m174.03 415.62c0-4.11 0.33-8.19 0.59-12.29-0.26 4.08-0.63 8.14-0.63 12.29h0.04z" style="color:#000000" fill="#ccc"/>
      <path id="path4400" d="m209.1 355.09c-4.04-1.67-8.67 0.24-10.34 4.28-15.51 37.45-14.38 77.77 0.01 112.53 0.81 1.94 2.34 3.5 4.29 4.31 1.94 0.8 4.13 0.79 6.07-0.02l66.88-27.7c1.94-0.81 3.48-2.35 4.28-4.3s0.8-4.14-0.02-6.08c-0.01-0.03-0.04-0.09-0.07-0.17-0.71-1.71-1.32-3.5-1.89-5.35-0.56-1.84-1.04-3.65-1.41-5.47-0.38-1.88-0.68-3.78-0.87-5.65-0.19-1.82-0.29-3.75-0.31-5.73-0.01-1.99 0.03-3.88 0.2-5.74 0.18-1.9 0.46-3.85 0.83-5.79 0.37-1.89 0.86-3.78 1.44-5.72 0.54-1.79 1.2-3.63 1.94-5.45 1.65-4.03-0.27-8.64-4.3-10.31l-66.73-27.64zm318.07 0c4.04-1.67 8.67 0.24 10.34 4.28 15.51 37.45 14.39 77.77-0.01 112.53-0.8 1.94-2.34 3.5-4.29 4.31-1.94 0.8-4.13 0.79-6.07-0.02l-66.88-27.7c-1.94-0.81-3.48-2.35-4.28-4.3s-0.79-4.14 0.02-6.08c0.02-0.03 0.04-0.09 0.07-0.17 0.71-1.71 1.33-3.5 1.89-5.35 0.57-1.84 1.04-3.65 1.41-5.47 0.38-1.88 0.68-3.78 0.87-5.65 0.2-1.82 0.29-3.75 0.31-5.73 0.01-1.99-0.03-3.88-0.2-5.74-0.17-1.9-0.46-3.85-0.83-5.79-0.37-1.89-0.86-3.78-1.44-5.72-0.54-1.79-1.19-3.63-1.94-5.45-1.65-4.03 0.27-8.64 4.3-10.31l66.73-27.64zm-220.6 218.58c-1.67 4.04 0.25 8.67 4.29 10.34 37.45 15.51 77.76 14.38 112.52-0.01 1.95-0.8 3.51-2.34 4.31-4.29 0.81-1.94 0.79-4.13-0.02-6.07l-27.7-66.88c-0.81-1.94-2.35-3.48-4.29-4.28-1.95-0.8-4.14-0.79-6.08 0.02-0.04 0.01-0.09 0.04-0.17 0.07-1.71 0.71-3.51 1.33-5.35 1.89-1.85 0.57-3.66 1.04-5.48 1.41-1.88 0.38-3.78 0.68-5.64 0.87-1.83 0.2-3.75 0.29-5.73 0.31-1.99 0.01-3.89-0.03-5.74-0.2-1.91-0.17-3.85-0.46-5.8-0.83-1.89-0.37-3.78-0.86-5.72-1.44-1.78-0.54-3.62-1.19-5.44-1.94-4.04-1.65-8.65 0.27-10.32 4.3l-27.64 66.73zm0-318.76c-1.67-4.04 0.25-8.67 4.29-10.35 37.45-15.51 77.76-14.38 112.52 0.02 1.95 0.8 3.51 2.34 4.31 4.28 0.81 1.94 0.79 4.13-0.02 6.08l-27.7 66.87c-0.81 1.95-2.35 3.48-4.29 4.28-1.95 0.8-4.14 0.8-6.08-0.02-0.04-0.01-0.09-0.03-0.17-0.07-1.71-0.71-3.51-1.32-5.35-1.89-1.85-0.56-3.66-1.03-5.48-1.41-1.88-0.38-3.78-0.67-5.64-0.87-1.83-0.19-3.75-0.29-5.73-0.3-1.99-0.02-3.89 0.03-5.74 0.2-1.91 0.17-3.85 0.45-5.8 0.83-1.89 0.36-3.78 0.86-5.72 1.44-1.78 0.53-3.62 1.19-5.44 1.93-4.04 1.65-8.65-0.27-10.32-4.29l-27.64-66.73z" style="color:#000000" fill="url(#radialGradient4299)"/>
    </g>
  </g>
  <metadata>
    <rdf:RDF>
      <cc:Work>
        <dc:format>image/svg+xml</dc:format>
        <dc:type rdf:resource="http://purl.org/dc/dcmitype/StillImage"/>
        <cc:license rdf:resource="http://creativecommons.org/licenses/publicdomain/"/>
        <dc:publisher>
          <cc:Agent rdf:about="http://openclipart.org/">
            <dc:title>Openclipart</dc:title>
          </cc:Agent>
        </dc:publisher>
        <dc:title>Lifesaver</dc:title>
        <dc:date>2007-02-26T11:07:20</dc:date>
        <dc:description>A lifesaver icon.</dc:description>
        <dc:source>http://openclipart.org/detail/3332/lifesaver-by-barretr-3332</dc:source>
        <dc:creator>
          <cc:Agent>
            <dc:title>barretr</dc:title>
          </cc:Agent>
        </dc:creator>
        <dc:subject>
          <rdf:Bag>
            <rdf:li>clip art</rdf:li>
            <rdf:li>clipart</rdf:li>
            <rdf:li>color</rdf:li>
            <rdf:li>computer</rdf:li>
            <rdf:li>help</rdf:li>
            <rdf:li>icon</rdf:li>
            <rdf:li>life belt</rdf:li>
            <rdf:li>life ring</rdf:li>
            <rdf:li>lifebuoy</rdf:li>
            <rdf:li>red</rdf:li>
            <rdf:li>software</rdf:li>
            <rdf:li>white</rdf:li>
          </rdf:Bag>
        </dc:subject>
      </cc:Work>
      <cc:License rdf:about="http://creativecommons.org/licenses/publicdomain/">
        <cc:permits rdf:resource="http://creativecommons.org/ns#Reproduction"/>
        <cc:permits rdf:resource="http://creativecommons.org/ns#Distribution"/>
        <cc:permits rdf:resource="http://creativecommons.org/ns#DerivativeWorks"/>
      </cc:License>
    </rdf:RDF>
  </metadata>
</svg>
