<?xml version="1.0"?>
<svg xmlns:rdf="http://www.w3.org/1999/02/22-rdf-syntax-ns#" xmlns="http://www.w3.org/2000/svg" xmlns:cc="http://creativecommons.org/ns#" xmlns:xlink="http://www.w3.org/1999/xlink" xmlns:dc="http://purl.org/dc/elements/1.1/" xmlns:svg="http://www.w3.org/2000/svg" id="svg2" viewBox="0 0 421.62 569.63" version="1.0">
  <title id="title3214">Magnifying Glass</title>
  <g id="layer1" transform="translate(-292.83 -130.67)">
    <g id="g2859" transform="matrix(2.728 -1.575 1.575 2.728 -4092.2 1189.4)">
      <path id="path2839" transform="translate(8 8)" fill="#ccc" d="m1430 469.36c0 24.853-20.147 45-45 45s-45-20.147-45-45 20.147-45 45-45 45 20.147 45 45z"/>
      <path id="path2841" d="m1393 424.38c-29.256 0-53 23.744-53 53 0 25.98 18.725 47.606 43.406 52.125-0.1852 4.0398-3.9062 85.128-3.9062 85.25 0 3.657 6.0438 6.625 13.5 6.625s13.5-2.968 13.5-6.625l-3.9062-85.25c24.7-4.53 43.4-26.15 43.4-52.13 0-29.256-23.744-53-53-53zm0 8c24.84 0.00001 45 20.16 45 45s-20.16 45-45 45c-24.84 0.00001-45-20.16-45-45s20.16-45 45-45z"/>
      <path id="path2854" d="m1393 432.38c-22.618 0-41.329 16.694-44.5 38.438 6.622 3.8351 14.302 6.0625 22.5 6.0625 22.618 0 41.329-16.725 44.5-38.469-6.622-3.8351-14.302-6.0312-22.5-6.0312z" fill="#f2f2f2"/>
    </g>
  </g>
  <metadata>
    <rdf:RDF>
      <cc:Work>
        <dc:format>image/svg+xml</dc:format>
        <dc:type rdf:resource="http://purl.org/dc/dcmitype/StillImage"/>
        <cc:license rdf:resource="http://creativecommons.org/licenses/publicdomain/"/>
        <dc:publisher>
          <cc:Agent rdf:about="http://openclipart.org/">
            <dc:title>Openclipart</dc:title>
          </cc:Agent>
        </dc:publisher>
        <dc:title>office-glass-magnify</dc:title>
        <dc:date>2010-08-06T23:32:51</dc:date>
        <dc:description>clip art, clipart, clues, detective, find, glass, looking, magnify, magnifying, mystery, office, search, zoom, </dc:description>
        <dc:source>http://openclipart.org/detail/78163/office-glass-magnify-by-sheikh_tuhin</dc:source>
        <dc:creator>
          <cc:Agent>
            <dc:title>sheikh_tuhin</dc:title>
          </cc:Agent>
        </dc:creator>
        <dc:subject>
          <rdf:Bag>
            <rdf:li>clip art</rdf:li>
            <rdf:li>clipart</rdf:li>
            <rdf:li>clues</rdf:li>
            <rdf:li>detective</rdf:li>
            <rdf:li>find</rdf:li>
            <rdf:li>glass</rdf:li>
            <rdf:li>looking</rdf:li>
            <rdf:li>magnify</rdf:li>
            <rdf:li>magnifying</rdf:li>
            <rdf:li>mystery</rdf:li>
            <rdf:li>office</rdf:li>
            <rdf:li>search</rdf:li>
            <rdf:li>zoom</rdf:li>
          </rdf:Bag>
        </dc:subject>
      </cc:Work>
      <cc:License rdf:about="http://creativecommons.org/licenses/publicdomain/">
        <cc:permits rdf:resource="http://creativecommons.org/ns#Reproduction"/>
        <cc:permits rdf:resource="http://creativecommons.org/ns#Distribution"/>
        <cc:permits rdf:resource="http://creativecommons.org/ns#DerivativeWorks"/>
      </cc:License>
    </rdf:RDF>
  </metadata>
</svg>
